<?xml version="1.0" encoding="UTF-8"?>
<svg version="1.1" xmlns="http://www.w3.org/2000/svg" width="1024" height="1024">
<path d="M0 0 C337.92 0 675.84 0 1024 0 C1024 337.92 1024 675.84 1024 1024 C686.08 1024 348.16 1024 0 1024 C0 686.08 0 348.16 0 0 Z " fill="#F18631" transform="translate(0,0)"/>
<path d="M0 0 C337.92 0 675.84 0 1024 0 C1024 337.92 1024 675.84 1024 1024 C686.08 1024 348.16 1024 0 1024 C0 686.08 0 348.16 0 0 Z M272.75 78.0625 C271.63995605 78.27237549 270.52991211 78.48225098 269.38623047 78.69848633 C245.22967557 83.56818418 220.152864 92.51422544 200 107 C199.40944824 107.41975098 198.81889648 107.83950195 198.21044922 108.27197266 C188.50774375 115.205922 179.53063002 122.67025256 171 131 C170.43861328 131.53802246 169.87722656 132.07604492 169.29882812 132.63037109 C165.00684242 136.80997018 161.24232777 141.22840626 157.625 146 C157.06337158 146.73984131 156.50174316 147.47968262 155.9230957 148.24194336 C150.72512322 155.19609806 146.15849788 162.38340383 142 170 C141.49243164 170.92449951 141.49243164 170.92449951 140.97460938 171.86767578 C123.50150108 204.13278924 117.83473258 238.00267641 117.86628723 274.32559204 C117.86441654 276.37584486 117.86211481 278.42609733 117.85942191 280.47634923 C117.85332907 286.08424052 117.85343454 291.69211684 117.85461628 297.30001068 C117.85482094 303.35898059 117.84929523 309.41794577 117.84455872 315.47691345 C117.83626446 327.34012983 117.8334914 339.20334139 117.83294634 351.06655993 C117.83248581 360.71800248 117.83042236 370.36944343 117.82724571 380.02088547 C117.82634807 382.80475565 117.82545826 385.58862583 117.82457083 388.37249601 C117.82434979 389.06470418 117.82412874 389.75691235 117.82390099 390.47009653 C117.81775001 409.93117822 117.81380008 429.39225935 117.81424427 448.85334206 C117.81425985 449.58645022 117.81427543 450.31955838 117.81429148 451.07488194 C117.81437458 454.7900643 117.81447362 458.50524666 117.81457619 462.22042902 C117.81459613 462.95819317 117.81461608 463.69595731 117.81463663 464.45607795 C117.81467706 465.94801872 117.81471886 467.43995948 117.81476202 468.93190025 C117.81537401 492.11508822 117.80788095 515.29826153 117.79418945 538.48144531 C117.77878945 564.56792526 117.77022566 590.65439559 117.77115268 616.74088037 C117.7712273 619.52915152 117.77127601 622.31742267 117.77130699 625.10569382 C117.77131865 625.79216098 117.7713303 626.47862814 117.77134231 627.18589734 C117.77137294 638.17885219 117.76501782 649.17179421 117.75637473 660.16474525 C117.74784855 671.23912101 117.74711653 682.31348195 117.75348405 693.38786019 C117.75672992 699.3739499 117.7568767 705.35999366 117.7481308 711.34607887 C117.14530393 752.56942887 117.14530393 752.56942887 122.1875 793.375 C122.40325684 794.4369458 122.61901367 795.4988916 122.84130859 796.59301758 C130.08045947 830.63129102 146.38400106 859.67682041 170 885 C170.69738281 885.75152344 171.39476562 886.50304687 172.11328125 887.27734375 C186.69624604 902.44682632 205.09488896 913.1298996 224 922 C225.08023438 922.52207031 226.16046875 923.04414062 227.2734375 923.58203125 C265.53681322 941.13871333 308.0038326 941.27431542 349.24068069 941.59363031 C352.25137148 941.6176981 355.26201879 941.64496871 358.27267456 941.67306137 C419.66334159 942.23975645 481.0593007 942.15184961 542.45195735 942.12946293 C555.10973898 942.12493148 567.76751146 942.12582121 580.42529297 942.13037109 C595.37736566 942.13574364 610.32943301 942.13782322 625.28150654 942.13475883 C626.87678846 942.13444045 628.47207038 942.13412607 630.06735229 942.13381577 C631.24292723 942.13358435 631.24292723 942.13358435 632.44225115 942.13334826 C637.88281763 942.13249585 643.3233806 942.13391661 648.76394653 942.13629532 C655.36574285 942.13912095 661.9675273 942.13829479 668.56932229 942.13301457 C671.91466411 942.13042427 675.25997028 942.12984978 678.60531425 942.13266373 C709.96268576 942.30661478 709.96268576 942.30661478 741.125 939.25 C742.29256836 939.07299561 743.46013672 938.89599121 744.66308594 938.71362305 C796.34521389 930.60876546 840.76903183 907.09709645 871.9375 864.4375 C880.58232326 852.34081516 887.86355703 838.95343647 893 825 C893.2794043 824.24364258 893.55880859 823.48728516 893.84667969 822.70800781 C897.87071115 811.55744735 900.75517364 800.35009246 902.875 788.6875 C903.07810791 787.58067871 903.28121582 786.47385742 903.49047852 785.33349609 C906.21307472 769.30422566 906.14952779 753.10424713 906.14717102 736.89640808 C906.15047833 734.81041707 906.15420569 732.72442669 906.1583125 730.63843709 C906.16824133 724.95030434 906.17203439 719.26218214 906.17470181 713.57404196 C906.17863198 707.42173233 906.18820792 701.26943084 906.19691467 695.11712646 C906.21566909 680.9854926 906.22592143 666.85386071 906.23437535 652.72221792 C906.23859593 645.72488026 906.24381588 638.72754344 906.24905988 631.73020649 C906.26693905 607.73371735 906.28193181 583.73722794 906.28938007 559.74073315 C906.28985481 558.23726031 906.2903307 556.73378747 906.29080774 555.23031463 C906.29104411 554.48480622 906.29128049 553.7392978 906.29152403 552.97119823 C906.2927251 549.19474738 906.29394059 545.41829654 906.29516602 541.6418457 C906.29552624 540.51772332 906.29552624 540.51772332 906.29589374 539.37089139 C906.30378132 515.08977625 906.32720764 490.80871003 906.35972196 466.52761624 C906.39411072 440.79933922 906.41373938 415.07109079 906.41702431 389.34279042 C906.41744179 386.5121554 906.41792134 383.6815204 906.41844749 380.85088539 C906.41857069 380.15400645 906.41869388 379.4571275 906.4188208 378.73913102 C906.42114114 367.58292247 906.43673482 356.42677137 906.45728934 345.27058321 C906.4776634 334.03311693 906.48263994 322.79571764 906.47351871 311.55823006 C906.4690007 305.48484894 906.47071347 299.41165223 906.49028015 293.33829689 C906.68531453 229.19534228 895.6850679 174.07695806 849.50097656 126.48535156 C845.61475965 122.63958974 841.34055713 119.31059442 837 116 C836.06671875 115.26265625 835.1334375 114.5253125 834.171875 113.765625 C794.93182882 83.33885122 746.53125549 73.8136928 697.81736755 73.86628723 C696.14528114 73.86441394 694.47319515 73.8621112 692.80110985 73.85942191 C688.25261953 73.85336148 683.70414774 73.85343063 679.15565431 73.85461628 C674.23179305 73.85482176 669.30793752 73.8492876 664.38407898 73.84455872 C654.75450269 73.83628327 645.12493253 73.83350529 635.49535298 73.83294634 C627.66078622 73.8324697 619.82622147 73.83040759 611.99165535 73.82724571 C589.73565842 73.81844761 567.4796663 73.81382501 545.22366761 73.81457619 C543.42722094 73.81463612 543.42722094 73.81463612 541.59448242 73.81469727 C539.79581977 73.81475859 539.79581977 73.81475859 537.9608205 73.81482115 C518.53898884 73.81522738 499.11717658 73.80566143 479.69535052 73.7915589 C459.71046224 73.77716305 439.72558341 73.77029048 419.74068981 73.77115268 C408.53788213 73.77148354 397.33509479 73.76878523 386.13229179 73.75797462 C376.59264727 73.74882728 367.05303232 73.74672891 357.51338529 73.75348405 C352.65583986 73.75672801 347.79835104 73.75688371 342.94081116 73.7481308 C319.41837296 73.70838735 295.95890943 73.67188044 272.75 78.0625 Z " fill="#FEFBF7" transform="translate(0,0)"/>
<path d="M0 0 C135.96 0 271.92 0 412 0 C410.84272484 27.77460382 410.84272484 27.77460382 409.6953125 41.0234375 C409.56916995 42.51541169 409.44327138 44.00740652 409.31759644 45.49942017 C409.05717084 48.57625723 408.79292697 51.65273484 408.52587891 54.72900391 C408.25646927 57.8366204 407.99291147 60.9446422 407.73486328 64.05322266 C402.20425467 130.66265989 402.20425467 130.66265989 378 154 C377.24460937 154.77472656 376.48921875 155.54945313 375.7109375 156.34765625 C361.44928817 170.2417373 341.62638281 178.727637 324.28564453 188.20361328 C312.63800309 194.57182146 301.08007921 201.0873307 289.5625 207.6875 C276.75392155 215.0262871 263.89211264 222.26115889 250.95556641 229.37255859 C249.0855721 230.40224487 247.21776489 231.43592183 245.35302734 232.47509766 C232.51583821 239.6286065 220.90744594 244.00192821 206 244.3125 C204.845 244.34988281 203.69 244.38726563 202.5 244.42578125 C190.46262613 243.79047541 179.82138737 238.87884951 169.5 233.0625 C168.27710075 232.3891283 167.05345146 231.71711718 165.82910156 231.04638672 C157.5072975 226.47074556 149.25460264 221.76866675 141.00805664 217.05908203 C132.73558503 212.35701516 124.34848647 207.88498438 115.9375 203.4375 C115.2474588 203.07257446 114.5574176 202.70764893 113.84646606 202.33166504 C112.81657059 201.78705627 112.81657059 201.78705627 111.76586914 201.23144531 C110.40118643 200.50979966 109.0365215 199.78812038 107.671875 199.06640625 C107.00715683 198.71488495 106.34243866 198.36336365 105.65757751 198.00119019 C97.34988009 193.60348715 89.09722915 189.10791905 80.86523438 184.5703125 C78.21569826 183.118215 75.55865654 181.68068693 72.89907837 180.24708557 C47.42362941 166.49894428 47.42362941 166.49894428 38 158 C37.4951709 157.55124512 36.9903418 157.10249023 36.47021484 156.64013672 C17.17930497 139.27653329 8.71309088 116.97121478 6.71875 91.34375 C6.61999069 90.17371933 6.52123138 89.00368866 6.41947937 87.79820251 C6.10387546 84.03282599 5.80163408 80.26651898 5.5 76.5 C5.28503358 73.89715288 5.06928952 71.29436987 4.8527832 68.69165039 C4.42470833 63.52678538 4.00209035 58.36152164 3.58447266 53.19580078 C3.07407382 46.88843895 2.54643335 40.58268292 2.01171875 34.27734375 C1.8009299 31.76958634 1.59084618 29.26177177 1.38134766 26.75390625 C1.25375815 25.22925987 1.12536175 23.70468077 0.99609375 22.18017578 C0.82046083 20.09827174 0.64973495 18.01602382 0.48046875 15.93359375 C0.38660889 14.79978271 0.29274902 13.66597168 0.19604492 12.49780273 C-0.03711025 8.3378848 0 4.16644675 0 0 Z " fill="#FEFBF7" transform="translate(309,466)"/>
<path d="M0 0 C0.74600322 -0.00063896 1.49200644 -0.00127793 2.26061583 -0.00193626 C4.79506675 -0.00282388 7.32944901 0.00355137 9.8638916 0.00984192 C11.70948775 0.01078804 13.55508416 0.01130974 15.40068054 0.011446 C20.54741934 0.01322127 25.69413063 0.02152595 30.84086037 0.03096032 C35.30333604 0.03839177 39.76581203 0.04227796 44.22829199 0.04615921 C56.1692458 0.05658183 68.11018284 0.07368403 80.05112332 0.09407156 C90.17841269 0.11135556 100.30570255 0.12638374 110.43299818 0.1394947 C147.41234941 0.18748433 184.39159423 0.25680479 221.37084961 0.35421944 C224.78601062 0.36317154 228.20117176 0.37207328 231.61633301 0.38093567 C232.46346847 0.38313889 233.31060393 0.38534211 234.18341017 0.38761209 C248.16942219 0.42367758 262.15543363 0.44819645 276.14147598 0.46883152 C290.71514957 0.49056084 305.28876552 0.52349535 319.86239004 0.56718606 C328.75494076 0.59351277 337.64742047 0.61134654 346.54000819 0.61783054 C352.56482494 0.62306922 358.58954952 0.63923376 364.61431682 0.66415016 C368.07901995 0.67816265 371.543558 0.6873354 375.00829124 0.68349266 C378.75816394 0.68184826 382.50752197 0.69846292 386.25732422 0.71975708 C387.89518033 0.71248572 387.89518033 0.71248572 389.56612444 0.70506746 C395.05154822 0.7567076 399.09068395 0.96404079 403.79553223 4.1184845 C407.22688078 7.64013169 408.01831143 10.33409366 407.98693848 15.095047 C407.86184905 24.10352526 407.06678524 33.07872013 406.35803223 42.0559845 C406.15213865 44.68363703 405.94777496 47.31137885 405.74693298 49.93942261 C405.62306268 51.55850305 405.49656696 53.17738707 405.3662262 54.79595947 C404.87493716 61.18849047 404.57023407 67.587024 404.27122498 73.99081421 C404.20231403 75.45290023 404.20231403 75.45290023 404.13201094 76.94452333 C404.01937291 79.33582165 403.90722721 81.72714198 403.79553223 84.1184845 C364.24200127 85.42614841 324.67725093 85.26723293 285.10770958 85.25378395 C278.14382842 85.25148199 271.1799497 85.25122267 264.21606827 85.25230026 C263.21468556 85.2524535 262.21330285 85.25260673 261.18157522 85.2527646 C259.14599203 85.2530844 257.11040884 85.25340861 255.07482566 85.2537372 C236.14739682 85.25656505 217.21997289 85.25334513 198.29254486 85.24793683 C182.07853172 85.24344768 165.86452572 85.2442672 149.6505127 85.24885559 C130.72531331 85.25420885 111.80011814 85.2563151 92.8749181 85.25324333 C90.85836546 85.25292482 88.84181281 85.25261045 86.82526016 85.25230026 C85.8335106 85.25214599 84.84176105 85.25199171 83.81995847 85.25183276 C76.85306367 85.25097161 69.88617157 85.25242131 62.91927719 85.25477982 C54.44823512 85.25758531 45.97720232 85.25682269 37.50616132 85.25149907 C33.19079364 85.24887585 28.87544141 85.24783396 24.56007385 85.25114822 C20.60755846 85.25413812 16.65507279 85.25247377 12.70256008 85.24717067 C11.27705835 85.24605826 9.85155408 85.24661142 8.42605399 85.24904646 C0.81813775 85.26104161 -6.6527495 85.08759014 -14.20446777 84.1184845 C-14.72930591 75.79917775 -15.25109193 67.4796874 -15.76907349 59.15995121 C-16.00973384 55.29601826 -16.25141154 51.43215475 -16.4954834 47.56843567 C-16.73135951 43.83384437 -16.96447289 40.09908959 -17.19573975 36.36421013 C-17.28407137 34.94534187 -17.37336776 33.5265333 -17.46368408 32.10778999 C-18.79717703 11.13214404 -18.79717703 11.13214404 -16.55993652 7.3059845 C-15.84450684 6.5841095 -15.12907715 5.8622345 -14.39196777 5.1184845 C-13.3304248 4.0047345 -13.3304248 4.0047345 -12.24743652 2.8684845 C-8.49568815 -0.34525025 -4.67928288 -0.02087865 0 0 Z " fill="#FEFBF7" transform="translate(320.2044677734375,366.8815155029297)"/>
<path d="M0 0 C22.48951656 0.88541404 39.81407915 12.83440012 54.9453125 28.57421875 C71.17322182 46.20868036 74.08940973 67.72150127 73.22509766 90.65478516 C71.97163265 109.28274342 60.97164457 125.51439553 50 140 C45.64348137 145.77177185 45.10025993 150.95815683 46 158 C47.20039018 163.11851768 48.95161831 168.02579471 50.69775391 172.97949219 C61 202.34538481 61 202.34538481 61 213 C54.54886428 213.29139413 48.09742648 213.57528525 41.64575195 213.85449219 C39.46110952 213.94985928 37.27653539 214.04680729 35.09204102 214.14550781 C20.71696338 214.79365946 6.389791 215.13658493 -8 215 C-8.30703857 214.18958252 -8.61407715 213.37916504 -8.93041992 212.54418945 C-10.09503957 209.47068712 -11.25995228 206.39729618 -12.42504883 203.32397461 C-12.92451103 202.0063092 -13.42386407 200.6886024 -13.9230957 199.37084961 C-14.16310303 198.73735596 -14.40311035 198.1038623 -14.65039062 197.45117188 C-14.89000519 196.81766815 -15.12961975 196.18416443 -15.37649536 195.53146362 C-15.86440436 194.24760544 -16.35603492 192.9651557 -16.85128784 191.68411255 C-18.03943961 188.60150327 -19.14951907 185.5354924 -20.16259766 182.38818359 C-22.80157561 174.48709944 -25.6209741 170.03881595 -33 166 C-37.2588698 163.95883183 -41.59603173 162.20199232 -46 160.5 C-54.38500835 157.25946352 -61.18192756 153.88782959 -68 148 C-68.76787842 147.39470459 -69.53575684 146.78940918 -70.3269043 146.16577148 C-85.23570269 134.3991166 -92.78004242 115.18102691 -96 97 C-98.80954563 67.84368684 -90.38571538 47.60432587 -73.28515625 24.71875 C-72.53105469 23.8215625 -71.77695312 22.924375 -71 22 C-70.34 22 -69.68 22 -69 22 C-67.42322034 26.46333193 -65.84682602 30.92679972 -64.27075195 35.39038086 C-63.71615853 36.96088934 -63.16147133 38.53136472 -62.60668945 40.10180664 C-59.67239847 48.40830614 -56.74300485 56.71616434 -53.85546875 65.0390625 C-52.79895759 68.07834117 -51.73186389 71.1137433 -50.65673828 74.14648438 C-50.06745685 75.8096162 -49.48449004 77.47498225 -48.90234375 79.140625 C-45.97000502 87.07099856 -42.52893031 93.00627641 -34.8125 96.9375 C-24.13746689 101.7748806 -12.85783981 101.1137141 -1.9375 97.24609375 C7.98892351 93.03528378 13.56380975 86.93084981 17.875 76.98046875 C20.43376802 69.10870326 18.44706453 62.29395358 15.9296875 54.78125 C15.61097687 53.80571167 15.29226624 52.83017334 14.96389771 51.82507324 C14.28778098 49.76263436 13.60667069 47.70182663 12.92089844 45.64257812 C11.88879352 42.54144495 10.87275268 39.43542148 9.859375 36.328125 C6.56762933 26.308388 3.16248314 16.47237459 -1.15966797 6.84570312 C-2 4 -2 4 -1.14892578 1.60742188 C-0.76978027 1.07697266 -0.39063477 0.54652344 0 0 Z " fill="#FEFBF7" transform="translate(427,143)"/>
<path d="M0 0 C11.31837573 0.0732581 20.04023105 1.96609613 30.0390625 7.265625 C30.13569557 23.6620262 30.20355635 40.06177738 29.7265625 56.453125 C29.69284546 58.09631714 29.69284546 58.09631714 29.65844727 59.77270508 C29.42286142 66.55234216 28.79592335 71.74801014 24.49609375 77.234375 C23.95339844 77.7396875 23.41070313 78.245 22.8515625 78.765625 C22.243125 79.34183594 21.6346875 79.91804688 21.0078125 80.51171875 C18.36582092 82.86539775 15.67411585 85.15634517 12.93359375 87.39453125 C8.76139551 91.51511467 6.54910129 95.98034126 5.03125 101.5859375 C4.68892334 102.82730469 4.34659668 104.06867188 3.99389648 105.34765625 C3.63379712 106.69527117 3.2738565 108.04292852 2.9140625 109.390625 C2.53241236 110.78805609 2.14965913 112.18518633 1.76586914 113.58203125 C0.94933533 116.55886081 0.13855751 119.53717778 -0.66845703 122.51660156 C-2.01493673 127.47775115 -3.38967728 132.43085591 -4.76953125 137.3828125 C-5.00039429 138.21136749 -5.23125732 139.03992249 -5.46911621 139.89358521 C-5.92797591 141.5400568 -6.38689847 143.18651088 -6.84588623 144.83294678 C-7.93027201 148.72632252 -9.01022039 152.62092643 -10.08984375 156.515625 C-10.28001572 157.20155731 -10.47018768 157.88748962 -10.66612244 158.59420776 C-11.09779404 160.15132838 -11.52937711 161.70847355 -11.9609375 163.265625 C-19.57595916 162.66868474 -26.61684736 160.95003382 -33.9609375 158.890625 C-35.10433594 158.58640625 -36.24773438 158.2821875 -37.42578125 157.96875 C-39.05193359 157.51628906 -39.05193359 157.51628906 -40.7109375 157.0546875 C-42.18820312 156.64790771 -42.18820312 156.64790771 -43.6953125 156.23291016 C-44.44296875 155.91370605 -45.190625 155.59450195 -45.9609375 155.265625 C-47.09506119 151.86325392 -46.80870363 150.89730558 -45.86865234 147.52905273 C-45.60442474 146.56631943 -45.34019714 145.60358612 -45.06796265 144.61167908 C-44.62439926 143.04626122 -44.62439926 143.04626122 -44.171875 141.44921875 C-43.87157379 140.36415543 -43.57127258 139.2790921 -43.26187134 138.16114807 C-42.29447772 134.67288237 -41.31539501 131.18802037 -40.3359375 127.703125 C-39.69844397 125.41232484 -39.06171669 123.1213113 -38.42578125 120.83007812 C-33.36064 102.61116375 -33.36064 102.61116375 -31.36621094 95.78710938 C-31.12794586 94.96146988 -30.88968079 94.13583038 -30.64419556 93.28517151 C-30.2104928 91.78525912 -29.76951698 90.28741996 -29.31942749 88.79234314 C-27.64929115 82.9795195 -28.00577316 78.87973975 -29.9609375 73.265625 C-30.52158207 71.24997428 -31.06238189 69.22872606 -31.5859375 67.203125 C-31.84632813 66.28402344 -32.10671875 65.36492187 -32.375 64.41796875 C-34.26842174 54.23135982 -31.5654542 48.5228267 -26.3359375 39.640625 C-25.65793694 38.45982507 -24.98127814 37.27825378 -24.3059082 36.09594727 C-22.22210182 32.46718797 -20.09687653 28.86388444 -17.9609375 25.265625 C-17.61951721 24.68903137 -17.27809692 24.11243774 -16.92633057 23.51837158 C-3.24901463 0.44010557 -3.24901463 0.44010557 0 0 Z " fill="#FEFBF7" transform="translate(650.9609375,142.734375)"/>
<path d="M0 0 C5.18708237 1.21296967 10.27451988 2.72235706 15.375 4.25 C17.68249376 4.930404 19.99087523 5.60773637 22.29933167 6.28486633 C23.93223026 6.76410971 25.56474074 7.24467722 27.19688416 7.72648621 C33.59040718 9.60785811 40.00702295 11.39541712 46.43359375 13.16015625 C49.29184106 13.95170306 52.14968742 14.74467991 55.00738525 15.53820801 C56.8679446 16.05177566 58.72988268 16.56037596 60.59320068 17.06384277 C63.21861777 17.77452364 65.8380347 18.5043467 68.45703125 19.23828125 C69.23372665 19.44324722 70.01042206 19.6482132 70.81065369 19.85939026 C75.94433984 21.32432824 79.19573789 23.2165019 83 27 C83.62109375 29.62109375 83.62109375 29.62109375 83.4375 32.4375 C83.35628906 33.99597656 83.35628906 33.99597656 83.2734375 35.5859375 C83.18320312 36.71257812 83.09296875 37.83921875 83 39 C82.93039062 40.25039063 82.86078125 41.50078125 82.7890625 42.7890625 C82.21464646 52.35606061 82.21464646 52.35606061 81 56 C44.7 56 8.4 56 -29 56 C-26.74860987 45.86874439 -26.74860987 45.86874439 -25.45947266 42.09448242 C-25.17222321 41.24718063 -24.88497375 40.39987885 -24.58901978 39.52690125 C-24.28378387 38.64532852 -23.97854797 37.7637558 -23.6640625 36.85546875 C-23.34343842 35.92326004 -23.02281433 34.99105133 -22.69247437 34.03059387 C-22.01773899 32.07585694 -21.34026052 30.12206489 -20.66015625 28.16918945 C-19.62329012 25.18257481 -18.60441067 22.19019461 -17.5859375 19.19726562 C-16.92557205 17.29128766 -16.26415038 15.38567525 -15.6015625 13.48046875 C-15.30037506 12.58877487 -14.99918762 11.69708099 -14.68887329 10.77836609 C-11.87445379 2.80604418 -9.08745644 -1.40757731 0 0 Z " fill="#FEFBF7" transform="translate(575,302)"/>
<path d="M0 0 C53.22222222 0 53.22222222 0 63 8 C69.27290335 15.16256993 71.36031136 20.87504607 71.375 30.3125 C71.41173828 31.53743164 71.41173828 31.53743164 71.44921875 32.78710938 C71.48745078 40.78397518 68.59861038 47.24587266 63 53 C53.5515146 60.36102932 43.5307836 61.44969712 31.875 61.1875 C25.996875 61.0946875 25.996875 61.0946875 20 61 C20 72.55 20 84.1 20 96 C13.4 96 6.8 96 0 96 C0 64.32 0 32.64 0 0 Z " fill="#FEF8F2" transform="translate(440,748)"/>
<path d="M0 0 C7.22346773 0.12873507 15.00043204 3.83723359 20.65625 8.1953125 C22.53947112 10.16939078 23.95298543 12.10984486 25.375 14.4375 C25.87773437 15.25476563 26.38046875 16.07203125 26.8984375 16.9140625 C32.16202444 27.23767225 32.14120939 40.99558554 29.25 52.125 C25.84008465 61.0760278 20.79651571 66.91510258 12.375 71.4375 C11.76011719 71.7778125 11.14523437 72.118125 10.51171875 72.46875 C3.28078484 75.81325048 -5.49686423 75.63461187 -13.01953125 73.453125 C-23.05761471 69.44284258 -28.99013457 63.9920524 -33.671875 54.26171875 C-37.30264658 44.34560204 -37.32092133 30.44866844 -33.66015625 20.5390625 C-29.54535468 12.18523893 -23.30328317 6.86018235 -15.125 2.625 C-10.09086503 0.91698992 -5.2212393 0.63014957 0 0 Z " fill="#FEFAF5" transform="translate(293.625,770.5625)"/>
<path d="M0 0 C0.73734375 0.165 1.4746875 0.33 2.234375 0.5 C10.70079592 2.83556439 16.90159957 7.74665158 21.5 15.1875 C27.08766689 25.04352354 26.30483576 38.72907783 24.3515625 49.61328125 C22.28950858 55.843504 18.82992521 60.60006813 14 65 C13.44957031 65.5053125 12.89914062 66.010625 12.33203125 66.53125 C4.62403546 72.38456247 -7.22739383 72.66129574 -16.5 71.4375 C-25.51375093 69.49814087 -31.77352714 64.52778451 -37 57 C-42.05062876 46.80624013 -43.15238698 33.04051908 -40.05859375 22.0703125 C-36.83108171 13.3084773 -33.08883756 7.44825134 -24.65625 3.10546875 C-16.67326058 -0.21686361 -8.49942214 -2.01467784 0 0 Z " fill="#FEFAF5" transform="translate(372,772)"/>
<path d="M0 0 C8.1303722 5.0673674 12.03633576 13.10900728 15 22 C16.06073849 35.28333888 15.78203678 47.81802262 7.7890625 58.9609375 C1.77498564 65.81540939 -6.33695848 69.04645519 -15.2109375 70.31640625 C-24.65280611 70.84474186 -33.95698702 67.08858617 -41.09375 61.05078125 C-49.88673712 51.59111273 -50.57978237 38.8554234 -50.3046875 26.64453125 C-49.84925343 17.28931323 -46.6174449 10.6085393 -40.1484375 3.875 C-37.03185438 1.15507292 -33.86682462 -0.58118412 -30 -2 C-29.05769531 -2.35449219 -28.11539063 -2.70898438 -27.14453125 -3.07421875 C-17.9494645 -5.78133778 -8.40996373 -4.40209039 0 0 Z " fill="#FEFAF5" transform="translate(566,775)"/>
<path d="M0 0 C6.27 0 12.54 0 19 0 C19.33 17.82 19.66 35.64 20 54 C29.52005348 43.01728397 29.52005348 43.01728397 39 32 C41.79248047 31.20532227 41.79248047 31.20532227 44.6171875 31.31640625 C46.14472656 31.35024414 46.14472656 31.35024414 47.703125 31.38476562 C48.74984375 31.44341797 49.7965625 31.50207031 50.875 31.5625 C51.94492187 31.59408203 53.01484375 31.62566406 54.1171875 31.65820312 C56.74763365 31.74040457 59.37237854 31.85522309 62 32 C58.35477282 37.08283834 54.57659413 41.6743612 50.0625 46 C45.47643068 50.48345993 41.11508492 55.07348988 37 60 C39.61251886 64.7240067 42.42821217 69.14671029 45.625 73.5 C49.31995408 78.60742382 52.92772907 83.76340611 56.4375 89 C56.85016113 89.61037109 57.26282227 90.22074219 57.68798828 90.84960938 C60.08656613 94.44896102 62.14746689 98.09240605 64 102 C45.54056222 103.61250296 45.54056222 103.61250296 40.43359375 100.37109375 C38.62168805 97.68729358 37.36200341 94.94014337 36 92 C34.09416678 88.95109022 32.0695803 85.9829279 30.0625 83 C29.08791834 81.5255238 28.11995732 80.04663996 27.16015625 78.5625 C26.74386963 77.92441406 26.32758301 77.28632812 25.89868164 76.62890625 C25 75 25 75 25 73 C21.75192991 75.29488844 20.25013449 76.68468335 19.49365234 80.66259766 C19.28333508 83.88592727 19.20449056 87.08240481 19.1875 90.3125 C19.16236328 91.43462891 19.13722656 92.55675781 19.11132812 93.71289062 C19.0525623 96.47488457 19.02339316 99.23748 19 102 C12.73 102 6.46 102 0 102 C0 68.34 0 34.68 0 0 Z " fill="#FEF9F4" transform="translate(659,741)"/>
<path d="M0 0 C0.86753906 -0.01160156 1.73507812 -0.02320313 2.62890625 -0.03515625 C10.89662642 0.0025959 15.99995503 2.92887136 22.046875 8.421875 C30.63058678 17.59250724 29.875 29.4480765 29.875 41.375 C15.355 41.375 0.835 41.375 -14.125 41.375 C-10.72458399 49.6438987 -10.72458399 49.6438987 -5.125 55.375 C0.47496406 57.24165469 5.81920231 57.18851294 11.1875 54.625 C14.21886787 52.93082235 16.59942337 51.0298394 18.875 48.375 C19.35710938 48.94089844 19.83921875 49.50679687 20.3359375 50.08984375 C20.96757813 50.82332031 21.59921875 51.55679688 22.25 52.3125 C22.87648438 53.04339844 23.50296875 53.77429688 24.1484375 54.52734375 C25.75247714 56.45880906 25.75247714 56.45880906 27.875 57.375 C25.08046005 63.98027624 20.47001794 68.62045435 13.875 71.375 C2.33488658 75.09489004 -7.17522294 73.48231651 -18.125 68.375 C-26.78893571 62.87493604 -30.15291 55.02854982 -32.5859375 45.36328125 C-34.65879402 33.87244621 -33.27510142 21.9752967 -26.56640625 12.22265625 C-19.15355849 2.72055059 -11.92334664 -0.16088474 0 0 Z " fill="#FEFAF5" transform="translate(755.125,771.625)"/>
<path d="M0 0 C25.08 0 50.16 0 76 0 C76 5.28 76 10.56 76 16 C66.76 16 57.52 16 48 16 C48 41.41 48 66.82 48 93 C41.73 93 35.46 93 29 93 C29 67.59 29 42.18 29 16 C19.43 16 9.86 16 0 16 C0 10.72 0 5.44 0 0 Z " fill="#FEFAF5" transform="translate(187,748)"/>
<path d="M0 0 C6.20665196 3.81482023 10.86230256 7.8830317 13 15 C13.54754359 18.03037058 13.80726436 20.91622974 14 24 C8.06 24 2.12 24 -4 24 C-4.99 21.36 -5.98 18.72 -7 16 C-9.51939263 13.01405318 -10.9281443 13.00811274 -14.875 12.5625 C-19.19721648 12.74762287 -21.72677971 14.10738672 -25 17 C-28.40931159 22.24758649 -28.45587995 26.82697728 -28.375 32.875 C-28.38660156 33.73480469 -28.39820313 34.59460938 -28.41015625 35.48046875 C-28.38074263 41.94166048 -27.7797344 48.07578876 -23.12109375 52.9765625 C-19.19695315 54.86997841 -15.24654899 54.49554542 -11 54 C-7.96175425 53.07979268 -7.96175425 53.07979268 -6 51 C-5.34 49.02 -4.68 47.04 -4 45 C1.94 45 7.88 45 14 45 C12.55309032 53.4183836 10.09017128 59.69714753 3.4375 65.3125 C-4.09684994 70.4861812 -13.09859903 71.79627839 -22.046875 70.6953125 C-30.76199741 68.64333923 -38.23433898 63.60947508 -43 56 C-44.6109962 52.40358647 -45.86684745 48.77108294 -47 45 C-47.495 43.515 -47.495 43.515 -48 42 C-48.83491673 29.54468487 -48.58559777 15.82420038 -40.06640625 5.7890625 C-29.09993043 -3.70554227 -13.23063088 -7.07976833 0 0 Z " fill="#FEFAF4" transform="translate(637,774)"/>
<path d="M0 0 C5.94 0 11.88 0 18 0 C18 5.94 18 11.88 18 18 C22.29 18 26.58 18 31 18 C31 22.62 31 27.24 31 32 C26.71 32 22.42 32 18 32 C18.09338911 37.66029124 18.19944948 43.32014731 18.31738281 48.97998047 C18.35572168 50.90634614 18.39056582 52.8327846 18.421875 54.75927734 C18.46741945 57.52467918 18.52543037 60.28957769 18.5859375 63.0546875 C18.59748871 63.9193161 18.60903992 64.7839447 18.62094116 65.67477417 C18.52662158 70.31782848 18.52662158 70.31782848 21 74 C23.43252661 74.46162427 23.43252661 74.46162427 26.125 74.625 C28.538125 74.810625 28.538125 74.810625 31 75 C31 79.62 31 84.24 31 89 C26.9611202 90.00971995 23.25245262 90.25570019 19.125 90.3125 C18.08279297 90.35600586 18.08279297 90.35600586 17.01953125 90.40039062 C11.82451653 90.46398308 8.97986402 89.27822874 5 86 C1.61567902 81.51806141 -0.12923082 78.13540269 -0.11352539 72.52856445 C-0.11344986 71.62785721 -0.11337433 70.72714996 -0.11329651 69.79914856 C-0.10813522 68.83031235 -0.10297394 67.86147614 -0.09765625 66.86328125 C-0.0962413 65.86870407 -0.09482635 64.87412689 -0.09336853 63.84941101 C-0.08776761 60.67041018 -0.07521496 57.49147957 -0.0625 54.3125 C-0.05748512 52.15820414 -0.05292219 50.00390718 -0.04882812 47.84960938 C-0.03779787 42.56637916 -0.02053262 37.28320149 0 32 C-3.3 32 -6.6 32 -10 32 C-10.33 27.38 -10.66 22.76 -11 18 C-7.37 18 -3.74 18 0 18 C0 12.06 0 6.12 0 0 Z " fill="#FEFAF6" transform="translate(800,754)"/>
<path d="M0 0 C6.27 0 12.54 0 19 0 C19 33.66 19 67.32 19 102 C12.73 102 6.46 102 0 102 C0 68.34 0 34.68 0 0 Z " fill="#FEF7F1" transform="translate(407,741)"/>
<path d="M0 0 C5.65373006 3.06569387 9.2994545 6.87646965 11.8125 12.875 C12.75432481 19.92773459 12.12501316 26.09547356 7.8125 31.875 C3.05596564 37.04614752 -1.49155689 39.53278305 -8.5625 40.1875 C-15.04007419 39.62908843 -20.53226567 37.53023433 -25.1875 32.875 C-30.06343514 26.68124456 -30.00107904 20.56431414 -29.1875 12.875 C-27.09653287 6.71214951 -22.99861016 2.70510568 -17.375 -0.4375 C-10.98109603 -3.35359826 -6.23373717 -2.85366635 0 0 Z " fill="#F2842E" transform="translate(522.1875,394.125)"/>
<path d="M0 0 C3.65656256 1.73937965 4.91756857 3.13216488 6.703125 6.87890625 C8.4181547 11.85616541 8.55014785 16.65433279 8.53515625 21.87890625 C8.56351562 22.77738281 8.591875 23.67585937 8.62109375 24.6015625 C8.63976587 31.01543741 7.28663024 35.48455602 3.03515625 40.37890625 C-1.44953324 43.36869924 -5.71356556 43.21383751 -10.96484375 42.37890625 C-14.97209535 40.32208684 -17.29117429 37.89011072 -19.12109375 33.78515625 C-20.22856327 29.3142608 -20.37164946 25.09440821 -20.40234375 20.50390625 C-20.43521484 19.64410156 -20.46808594 18.78429687 -20.50195312 17.8984375 C-20.55537099 11.4980056 -19.03468073 7.33859152 -14.96484375 2.37890625 C-10.55615701 -1.43401202 -5.41740913 -1.71246134 0 0 Z " fill="#F2832D" transform="translate(369.96484375,786.62109375)"/>
<path d="M0 0 C3.33309783 2.70995345 4.60843218 5.75546457 5.078125 10.00634766 C5.20064559 12.99738158 5.20593207 15.96769922 5.171875 18.9609375 C5.18347656 19.98058594 5.19507813 21.00023437 5.20703125 22.05078125 C5.18176815 28.52655641 4.55641144 33.12649763 0.296875 38.2734375 C-3.21518061 41.05381486 -7.42094781 40.86383273 -11.6953125 40.7890625 C-14.74585575 40.389926 -16.8462312 39.39608415 -19.01953125 37.1796875 C-24.27273042 29.55127947 -24.22075882 19.32481338 -23.203125 10.4609375 C-21.67917431 5.51907272 -19.69133004 1.79248938 -15.828125 -1.6640625 C-9.86453989 -3.6519242 -5.48473759 -2.56685719 0 0 Z " fill="#F2832E" transform="translate(557.203125,788.5390625)"/>
<path d="M0 0 C4.5892476 2.59392256 6.52713614 6.05357456 8 11 C8.43608879 14.32324899 8.46512913 17.58935226 8.4375 20.9375 C8.4674707 22.22043945 8.4674707 22.22043945 8.49804688 23.52929688 C8.49276489 30.45398376 6.99010373 35.88582558 2.1171875 40.9609375 C-2.35798411 43.15723943 -7.18953563 42.90035429 -12 42 C-16.71334997 38.86975995 -18.590189 34.33714164 -20 29 C-20.32013644 26.03643095 -20.37002667 23.10402181 -20.375 20.125 C-20.39949219 19.36058594 -20.42398437 18.59617187 -20.44921875 17.80859375 C-20.47842051 12.07531483 -19.15725004 7.80583479 -16 3 C-11.11939381 -1.58481188 -6.21855304 -1.39041591 0 0 Z " fill="#F2832D" transform="translate(297,787)"/>
<path d="M0 0 C3.485625 -0.0825 6.97125 -0.165 10.5625 -0.25 C11.64732666 -0.28641602 12.73215332 -0.32283203 13.84985352 -0.36035156 C20.14590411 -0.43216743 23.90203262 0.22448921 29 4 C32.37390778 8.6799366 32.865351 13.40924917 32 19 C30.70962158 22.78365199 28.89981658 25.37849207 25.5625 27.68359375 C20.53625036 29.54088117 15.93000967 29.31994942 10.625 29.1875 C5.365625 29.0946875 5.365625 29.0946875 0 29 C0 19.43 0 9.86 0 0 Z " fill="#F2832E" transform="translate(460,764)"/>
<path d="M0 0 C2.44655009 3.70928562 3 5.52080453 3 10 C-5.58 10 -14.16 10 -23 10 C-20 1 -20 1 -18 -2 C-11.90502361 -4.48313853 -5.5144157 -3.18139367 0 0 Z " fill="#F17F28" transform="translate(764,789)"/>
<path d="M0 0 C0.02721176 1.89575251 0.04649136 3.79161979 0.0625 5.6875 C0.07410156 6.74324219 0.08570313 7.79898438 0.09765625 8.88671875 C0.00865425 11.72410262 -0.35060162 14.2438919 -1 17 C-3.14336161 13.5233662 -3.21277626 10.78770805 -3.125 6.75 C-3.10695313 5.67234375 -3.08890625 4.5946875 -3.0703125 3.484375 C-3.04710937 2.66453125 -3.02390625 1.8446875 -3 1 C-1 0 -1 0 0 0 Z " fill="#F28C3E" transform="translate(683,183)"/>
<path d="M0 0 C0.33 1.32 0.66 2.64 1 4 C0.38125 4.226875 -0.2375 4.45375 -0.875 4.6875 C-3.63071371 6.38955847 -3.88516132 8.02709686 -5 11 C-5.99 11.66 -6.98 12.32 -8 13 C-6.40956621 7.91061189 -3.2553049 4.12543357 0 0 Z " fill="#F1761A" transform="translate(486,269)"/>
<path d="M0 0 C0.66 0.33 1.32 0.66 2 1 C0.7874262 4.72433382 -0.50859979 8.37802806 -2 12 C-2.33 12 -2.66 12 -3 12 C-2.14285714 3.42857143 -2.14285714 3.42857143 0 0 Z " fill="#F27922" transform="translate(129,200)"/>
<path d="M0 0 C0.99 0.33 1.98 0.66 3 1 C0.16569547 4.2542015 -1.68607774 5.5206753 -6 6 C-4 4 -2 2 0 0 Z " fill="#F27A1F" transform="translate(387,835)"/>
<path d="M0 0 C0 0.66 0 1.32 0 2 C-3.69541586 2.95024979 -6.30458414 2.95024979 -10 2 C-6.3558226 -0.4294516 -4.28758728 -0.16179575 0 0 Z " fill="#F2771D" transform="translate(276,79)"/>
<path d="M0 0 C0.99 0.33 1.98 0.66 3 1 C0.36 2.98 -2.28 4.96 -5 7 C-3.38262276 3.76524552 -2.52370777 2.29427979 0 0 Z " fill="#F37C24" transform="translate(666,227)"/>
</svg>
